<?xml version="1.0" standalone="no"?>
<!DOCTYPE svg PUBLIC "-//W3C//DTD SVG 20010904//EN"
 "http://www.w3.org/TR/2001/REC-SVG-20010904/DTD/svg10.dtd">
<svg version="1.0" xmlns="http://www.w3.org/2000/svg"
 width="512.000000pt" height="512.000000pt" viewBox="0 0 512.000000 512.000000"
 preserveAspectRatio="xMidYMid meet">
<metadata>
Created by potrace 1.11, written by Peter Selinger 2001-2013
</metadata>
<g transform="translate(0.000000,512.000000) scale(0.100000,-0.100000)"
fill="#000000" stroke="none">
<path d="M30 3610 c-20 -20 -20 -33 -20 -1280 0 -1247 0 -1260 20 -1280 20
-20 33 -20 2530 -20 2497 0 2510 0 2530 20 20 20 20 33 20 1280 0 1247 0 1260
-20 1280 -20 20 -33 20 -2530 20 -2497 0 -2510 0 -2530 -20z m5008 -52 c17
-17 17 -2439 0 -2456 -17 -17 -4939 -17 -4956 0 -17 17 -17 2439 0 2456 17 17
4939 17 4956 0z"/>
<path d="M310 2315 l0 -995 85 0 85 0 0 995 0 995 -85 0 -85 0 0 -995z"/>
<path d="M940 2315 l0 -995 85 0 85 0 0 995 0 995 -85 0 -85 0 0 -995z"/>
<path d="M4020 2315 l0 -995 85 0 85 0 0 995 0 995 -85 0 -85 0 0 -995z"/>
<path d="M4650 2315 l0 -995 85 0 85 0 0 995 0 995 -85 0 -85 0 0 -995z"/>
<path d="M1850 2480 l0 -760 110 0 110 0 0 280 0 280 48 0 47 0 109 -270 c60
-148 113 -274 116 -280 4 -7 54 -10 136 -8 l130 3 -138 323 -139 324 40 43
c81 88 118 192 128 355 13 233 -58 399 -193 449 -49 19 -77 21 -279 21 l-225
0 0 -760z m401 467 c52 -35 64 -68 64 -177 0 -77 -4 -103 -21 -134 -32 -63
-63 -80 -150 -84 l-74 -4 0 211 0 211 74 0 c60 0 79 -4 107 -23z"/>
<path d="M2760 2480 l0 -760 305 0 305 0 0 145 0 145 -195 0 -195 0 0 615 0
615 -110 0 -110 0 0 -760z"/>
</g>
</svg>
